<svg width="32" height="28" viewBox="0 0 32 28" fill="none" xmlns="http://www.w3.org/2000/svg">
<path d="M16 16.981L4.07605 27.4144C3.62991 27.8048 3.0621 28 2.37262 28C1.68314 28 1.11533 27.8048 0.669201 27.4144C0.223066 27.0241 0 26.5272 0 25.924C0 25.3207 0.223066 24.8238 0.669201 24.4335L12.5932 14L0.669201 3.56654C0.223066 3.17617 0 2.67934 0 2.07605C0 1.47275 0.223066 0.975918 0.669201 0.58555C1.11533 0.195183 1.68314 0 2.37262 0C3.0621 0 3.62991 0.195183 4.07605 0.58555L16 11.019L27.924 0.58555C28.3701 0.195183 28.9379 0 29.6274 0C30.3169 0 30.8847 0.195183 31.3308 0.58555C31.7769 0.975918 32 1.47275 32 2.07605C32 2.67934 31.7769 3.17617 31.3308 3.56654L19.4068 14L31.3308 24.4335C31.7769 24.8238 32 25.3207 32 25.924C32 26.5272 31.7769 27.0241 31.3308 27.4144C30.8847 27.8048 30.3169 28 29.6274 28C28.9379 28 28.3701 27.8048 27.924 27.4144L16 16.981Z" fill="#F5F0EA"/>
</svg>
